<svg xmlns="http://www.w3.org/2000/svg" width="101.551" height="60" viewBox="0 0 101.551 60"><defs><style>.a{fill:#333;}</style></defs><g transform="translate(0 -84.08)"><g transform="translate(0 84.08)"><path class="a" d="M87.743,92.685c-3.657,0-5.519-1.7-7.163-3.209-1.484-1.358-2.656-2.431-5.161-2.431s-3.677,1.073-5.161,2.431c-1.643,1.5-3.506,3.209-7.163,3.209s-5.519-1.7-7.163-3.209c-1.484-1.358-2.656-2.431-5.16-2.431s-3.676,1.073-5.16,2.431c-1.643,1.5-3.506,3.209-7.163,3.209s-5.519-1.7-7.162-3.209c-1.484-1.358-2.655-2.431-5.16-2.431s-3.676,1.073-5.16,2.431c-1.643,1.5-3.506,3.209-7.162,3.209s-5.52-1.7-7.163-3.209c-1.484-1.358-2.656-2.431-5.16-2.431a1.483,1.483,0,1,1,0-2.965c3.657,0,5.519,1.7,7.163,3.209,1.484,1.358,2.656,2.431,5.161,2.431s3.676-1.073,5.16-2.431c1.643-1.5,3.506-3.209,7.162-3.209s5.519,1.7,7.162,3.209c1.484,1.358,2.655,2.431,5.16,2.431s3.677-1.073,5.16-2.431c1.643-1.5,3.506-3.209,7.162-3.209s5.519,1.7,7.163,3.209c1.484,1.358,2.656,2.431,5.16,2.431s3.677-1.073,5.161-2.431c1.643-1.5,3.506-3.209,7.163-3.209s5.52,1.7,7.163,3.209c1.484,1.358,2.656,2.431,5.16,2.431s3.677-1.073,5.162-2.431c1.643-1.5,3.506-3.209,7.163-3.209a1.483,1.483,0,0,1,0,2.965c-2.505,0-3.677,1.073-5.162,2.431C93.263,90.98,91.4,92.685,87.743,92.685Z" transform="translate(0 -84.08)"/></g><g transform="translate(0 96.929)"><path class="a" d="M87.743,144.685c-3.657,0-5.519-1.7-7.163-3.209-1.484-1.358-2.656-2.431-5.161-2.431s-3.677,1.073-5.161,2.431c-1.643,1.5-3.506,3.209-7.163,3.209s-5.519-1.7-7.163-3.209c-1.484-1.358-2.656-2.431-5.16-2.431s-3.676,1.073-5.16,2.431c-1.643,1.5-3.506,3.209-7.163,3.209s-5.519-1.7-7.162-3.209c-1.484-1.358-2.655-2.431-5.16-2.431s-3.676,1.073-5.16,2.431c-1.643,1.5-3.506,3.209-7.162,3.209s-5.52-1.7-7.163-3.209c-1.484-1.358-2.656-2.431-5.16-2.431a1.483,1.483,0,1,1,0-2.965c3.657,0,5.519,1.7,7.163,3.209,1.484,1.358,2.656,2.431,5.161,2.431s3.676-1.073,5.16-2.431c1.643-1.5,3.506-3.209,7.162-3.209s5.519,1.7,7.162,3.209c1.484,1.358,2.655,2.431,5.16,2.431s3.677-1.073,5.16-2.431c1.643-1.5,3.506-3.209,7.162-3.209s5.519,1.7,7.163,3.209c1.484,1.358,2.656,2.431,5.16,2.431s3.677-1.073,5.161-2.431c1.643-1.5,3.506-3.209,7.163-3.209s5.52,1.7,7.163,3.209c1.484,1.358,2.656,2.431,5.16,2.431s3.677-1.073,5.162-2.431c1.643-1.5,3.506-3.209,7.163-3.209a1.483,1.483,0,0,1,0,2.965c-2.505,0-3.677,1.073-5.162,2.431C93.263,142.98,91.4,144.685,87.743,144.685Z" transform="translate(0 -136.08)"/></g><g transform="translate(0 109.778)"><path class="a" d="M87.743,196.686c-3.657,0-5.519-1.7-7.163-3.209-1.484-1.358-2.656-2.431-5.161-2.431s-3.677,1.073-5.161,2.431c-1.643,1.5-3.506,3.209-7.163,3.209s-5.519-1.7-7.163-3.209c-1.484-1.358-2.656-2.431-5.16-2.431s-3.676,1.073-5.16,2.431c-1.643,1.5-3.506,3.209-7.163,3.209s-5.519-1.7-7.162-3.209c-1.484-1.358-2.655-2.431-5.16-2.431s-3.676,1.073-5.16,2.431c-1.643,1.5-3.506,3.209-7.162,3.209s-5.52-1.7-7.163-3.209c-1.484-1.358-2.656-2.431-5.16-2.431a1.483,1.483,0,1,1,0-2.965c3.657,0,5.519,1.7,7.163,3.209,1.484,1.358,2.656,2.431,5.161,2.431s3.676-1.073,5.16-2.431c1.643-1.5,3.506-3.209,7.162-3.209s5.519,1.7,7.162,3.209c1.484,1.358,2.655,2.431,5.16,2.431s3.677-1.073,5.16-2.431c1.643-1.5,3.506-3.209,7.162-3.209s5.519,1.7,7.163,3.209c1.484,1.358,2.656,2.431,5.16,2.431s3.677-1.073,5.161-2.431c1.643-1.5,3.506-3.209,7.163-3.209s5.52,1.7,7.163,3.209c1.484,1.358,2.656,2.431,5.16,2.431s3.677-1.073,5.162-2.431c1.643-1.5,3.506-3.209,7.163-3.209a1.483,1.483,0,0,1,0,2.965c-2.505,0-3.677,1.073-5.162,2.431C93.263,194.981,91.4,196.686,87.743,196.686Z" transform="translate(0 -188.081)"/></g><g transform="translate(0 122.626)"><path class="a" d="M87.743,248.686c-3.657,0-5.519-1.7-7.163-3.209-1.484-1.358-2.656-2.431-5.161-2.431s-3.677,1.073-5.161,2.431c-1.643,1.5-3.506,3.209-7.163,3.209s-5.519-1.7-7.163-3.209c-1.484-1.358-2.656-2.431-5.16-2.431s-3.676,1.073-5.16,2.431c-1.643,1.5-3.506,3.209-7.163,3.209s-5.519-1.7-7.162-3.209c-1.484-1.358-2.655-2.431-5.16-2.431s-3.676,1.073-5.16,2.431c-1.643,1.5-3.506,3.209-7.162,3.209s-5.52-1.7-7.163-3.209c-1.484-1.358-2.656-2.431-5.16-2.431a1.483,1.483,0,1,1,0-2.965c3.657,0,5.519,1.7,7.163,3.209,1.484,1.358,2.656,2.431,5.161,2.431s3.676-1.073,5.16-2.431c1.643-1.5,3.506-3.209,7.162-3.209s5.519,1.7,7.162,3.209c1.484,1.358,2.655,2.431,5.16,2.431s3.677-1.073,5.16-2.431c1.643-1.5,3.506-3.209,7.162-3.209s5.519,1.7,7.163,3.209c1.484,1.358,2.656,2.431,5.16,2.431s3.677-1.073,5.161-2.431c1.643-1.5,3.506-3.209,7.163-3.209s5.52,1.7,7.163,3.209c1.484,1.358,2.656,2.431,5.16,2.431s3.677-1.073,5.162-2.431c1.643-1.5,3.506-3.209,7.163-3.209a1.483,1.483,0,0,1,0,2.965c-2.505,0-3.677,1.073-5.162,2.431C93.263,246.981,91.4,248.686,87.743,248.686Z" transform="translate(0 -240.081)"/></g><g transform="translate(0 135.475)"><path class="a" d="M87.743,300.686c-3.657,0-5.519-1.7-7.163-3.209-1.484-1.358-2.656-2.431-5.161-2.431s-3.677,1.073-5.161,2.431c-1.643,1.5-3.506,3.209-7.163,3.209s-5.519-1.7-7.163-3.209c-1.484-1.358-2.656-2.431-5.16-2.431s-3.676,1.073-5.16,2.431c-1.643,1.5-3.506,3.209-7.163,3.209s-5.519-1.7-7.162-3.209c-1.484-1.358-2.655-2.431-5.16-2.431s-3.676,1.073-5.16,2.431c-1.643,1.5-3.506,3.209-7.162,3.209s-5.52-1.7-7.163-3.209c-1.484-1.358-2.656-2.431-5.16-2.431a1.483,1.483,0,1,1,0-2.965c3.657,0,5.519,1.7,7.163,3.209,1.484,1.358,2.656,2.431,5.161,2.431s3.676-1.073,5.16-2.431c1.643-1.5,3.506-3.209,7.162-3.209s5.519,1.7,7.162,3.209c1.484,1.358,2.655,2.431,5.16,2.431s3.677-1.073,5.16-2.431c1.643-1.5,3.506-3.209,7.162-3.209s5.519,1.7,7.163,3.209c1.484,1.358,2.656,2.431,5.16,2.431s3.677-1.073,5.161-2.431c1.643-1.5,3.506-3.209,7.163-3.209s5.52,1.7,7.163,3.209c1.484,1.358,2.656,2.431,5.16,2.431s3.677-1.073,5.162-2.431c1.643-1.5,3.506-3.209,7.163-3.209a1.483,1.483,0,0,1,0,2.965c-2.505,0-3.677,1.073-5.162,2.431C93.263,298.981,91.4,300.686,87.743,300.686Z" transform="translate(0 -292.081)"/></g></g></svg>