<svg xmlns="http://www.w3.org/2000/svg" width="16" height="104" viewBox="0 0 16 104"><defs><style>.a{fill:#333;}</style></defs><g transform="translate(-22)"><path class="a" d="M30,16a8,8,0,1,0-8-8A8.009,8.009,0,0,0,30,16ZM30,2a6,6,0,1,1-6,6A6.006,6.006,0,0,1,30,2Z"/><path class="a" d="M30,44a8,8,0,1,0,8,8A8.009,8.009,0,0,0,30,44Zm0,14a6,6,0,1,1,6-6A6.006,6.006,0,0,1,30,58Z"/><path class="a" d="M30,44a8,8,0,1,0,8,8A8.009,8.009,0,0,0,30,44Zm0,14a6,6,0,1,1,6-6A6.006,6.006,0,0,1,30,58Z" transform="translate(0 44)"/><path class="a" d="M30,22a8,8,0,1,0,8,8A8.009,8.009,0,0,0,30,22Zm0,14a6,6,0,1,1,6-6A6.006,6.006,0,0,1,30,36Z"/><path class="a" d="M30,22a8,8,0,1,0,8,8A8.009,8.009,0,0,0,30,22Zm0,14a6,6,0,1,1,6-6A6.006,6.006,0,0,1,30,36Z" transform="translate(0 44)"/></g></svg>