<svg xmlns="http://www.w3.org/2000/svg" width="39.835" height="41" viewBox="0 0 39.835 41"><defs><style>.a{fill:none;stroke:#333;}</style></defs><g transform="translate(-5.5 -5.5)"><path class="a" d="M6,61.059H44.835v4.413H6Zm0,0" transform="translate(0 -49.713)"/><path class="a" d="M44.835,9.883v1.462H6V9.883A3.884,3.884,0,0,1,9.883,6H40.951A3.884,3.884,0,0,1,44.835,9.883Zm0,0" transform="translate(0)"/><path class="a" d="M309.993,157.789a3.585,3.585,0,1,1-1.942,6.6,3.585,3.585,0,0,0,0-6.026A3.572,3.572,0,0,1,309.993,157.789Zm0,0" transform="translate(-272.726 -137.052)"/><path class="a" d="M256.653,158.361a3.584,3.584,0,1,1-1.942-.572,3.584,3.584,0,0,1,1.942.572Zm0,0" transform="translate(-221.328 -137.053)"/><path class="a" d="M23.346,303.191a.425.425,0,1,0-.3-.124.426.426,0,0,0,.3.124Zm4.212-.426a.426.426,0,1,0,.426-.425A.425.425,0,0,0,27.557,302.765Zm9.7.426a.426.426,0,1,0-.425-.426A.426.426,0,0,0,37.259,303.191Zm-4.638,0a.426.426,0,1,0-.426-.426A.425.425,0,0,0,32.621,303.191Zm9.276,0a.426.426,0,1,0-.425-.426A.426.426,0,0,0,41.9,303.191Zm3.346-1.72v2.589a.971.971,0,0,1-.971.971h-23.3a.971.971,0,0,1-.971-.971v-2.589a.971.971,0,0,1,.971-.971h23.3A.971.971,0,0,1,45.243,301.471Zm0,0" transform="translate(-12.641 -265.908)"/><path class="a" d="M65.575,347.172v5.258a1.618,1.618,0,0,1-1.618,1.619H46.849a1.618,1.618,0,0,1-1.618-1.619v-5.258Zm0,0" transform="translate(-35.422 -308.049)"/><path class="a" d="M0,15.128V10.033A1.618,1.618,0,0,1,1.619,8.415H3.39V5.232A5.233,5.233,0,0,1,8.624,0h3.095a5.233,5.233,0,0,1,5.234,5.232V8.415h1.772a1.618,1.618,0,0,1,1.619,1.619v5.095ZM15.209,8.415V5.232a3.494,3.494,0,0,0-3.491-3.488H8.624A3.491,3.491,0,0,0,5.135,5.232V8.415Z" transform="translate(9.809 19.464)"/><path class="a" d="M13.2,118.633H11.427a1.618,1.618,0,0,0-1.618,1.618v2.392A3.883,3.883,0,0,1,6,118.761V106.512H44.835v12.249a3.884,3.884,0,0,1-3.883,3.883h-10.8v-2.393a1.618,1.618,0,0,0-1.618-1.618H26.762v-3.182a5.233,5.233,0,0,0-5.234-5.234h-3.1a5.233,5.233,0,0,0-5.234,5.234Zm22.126-.544a3.585,3.585,0,1,0,0-6.026,3.585,3.585,0,1,0,0,6.026Zm0,0" transform="translate(0 -90.754)"/></g></svg>