<svg xmlns="http://www.w3.org/2000/svg" width="74.358" height="74.358" viewBox="0 0 74.358 74.358"><defs><style>.a{fill:none;stroke:#333;stroke-width:2px;}</style></defs><g transform="translate(11.321 58.543) rotate(-13)"><g transform="translate(0.001 -45)"><g transform="translate(0 0)"><path class="a" d="M36.448-15.026,58.67-37.248a4.538,4.538,0,0,0,0-6.421,4.538,4.538,0,0,0-6.421,0L30.026-21.447,7.8-43.669a4.538,4.538,0,0,0-6.421,0,4.541,4.541,0,0,0,0,6.421L23.605-15.026,1.332,7.248a4.54,4.54,0,1,0,6.421,6.421L30.026-8.6,52.249,13.618A4.54,4.54,0,1,0,58.67,7.2Z" transform="translate(-0.001 45)"/></g></g></g></svg>