<svg xmlns="http://www.w3.org/2000/svg" width="34.333" height="41" viewBox="0 0 34.333 41"><defs><style>.a{fill:none;stroke:#333;}</style></defs><g transform="translate(-4.5 0.5)"><path class="a" d="M37.667,38.667h-2V36H32.333V29.185a5.363,5.363,0,0,0-2.393-4.471L22.869,20l7.072-4.715a5.363,5.363,0,0,0,2.393-4.471V4h3.333V1.333h2a.667.667,0,0,0,0-1.333h-32a.667.667,0,1,0,0,1.333h2V4H11v6.815a5.363,5.363,0,0,0,2.393,4.471L20.465,20l-7.072,4.715A5.363,5.363,0,0,0,11,29.185V36H7.667v2.667h-2a.667.667,0,1,0,0,1.333h32a.667.667,0,0,0,0-1.333Z"/><path class="a" d="M21.638,21.248l-3.987-2.941a5.587,5.587,0,0,1-2.4-3.938" transform="translate(-1.856 -5.084)"/><path class="a" d="M15.25,14.369l3.987,2.941a5.587,5.587,0,0,1,2.4,3.938" transform="translate(8.591 9.179)"/><line class="a" x2="22.833" transform="translate(10.5 2.5)"/><line class="a" x2="22.833" transform="translate(10.5 37.5)"/></g></svg>