<svg xmlns="http://www.w3.org/2000/svg" width="31.148" height="40" viewBox="0 0 31.148 40"><defs><style>.a{fill:#333;}</style></defs><g transform="translate(-0.055 0)"><path class="a" d="M30.807,8.1,15.773.088a.747.747,0,0,0-.712,0L.443,8.1a.748.748,0,0,0-.388.657V19.224a21.667,21.667,0,0,0,12.986,19.83l2.029.884a.748.748,0,0,0,.6,0l2.286-.987A21.624,21.624,0,0,0,31.2,19.016V8.76a.749.749,0,0,0-.4-.661Zm-1.1,10.917a20.13,20.13,0,0,1-12.34,18.558l-.005,0-1.991.86-1.73-.755A20.168,20.168,0,0,1,1.551,19.224V9.2L15.426,1.6l14.28,7.609Zm0,0" transform="translate(0 0)"/><path class="a" d="M81.16,149.163a.748.748,0,0,0-1.139.972l3.954,4.63a.748.748,0,0,0,1.041.095l9.208-7.491a.748.748,0,1,0-.945-1.161l-8.641,7.029Zm0,0" transform="translate(-71.256 -130.425)"/></g></svg>