<svg xmlns="http://www.w3.org/2000/svg" xmlns:xlink="http://www.w3.org/1999/xlink" width="22" height="24" viewBox="0 0 22 24"><defs><style>.a{fill:#333;}.b{clip-path:url(#a);}</style><clipPath id="a"><rect class="a" width="22" height="24" transform="translate(655 1638)"/></clipPath></defs><g class="b" transform="translate(-655 -1638)"><g transform="translate(659.053 1637.908)"><path class="a" d="M22.181.005,19.057,0c-3.51,0-5.778,2.327-5.778,5.929V8.663H10.138a.491.491,0,0,0-.491.491v3.961a.491.491,0,0,0,.491.491h3.141V23.6a.491.491,0,0,0,.491.491h4.1a.491.491,0,0,0,.491-.491V13.606h3.673a.491.491,0,0,0,.491-.491l0-3.961a.492.492,0,0,0-.491-.491H18.36V6.345c0-1.114.265-1.679,1.716-1.679h2.1a.491.491,0,0,0,.491-.491V.5A.491.491,0,0,0,22.181.005Z" transform="translate(-9.646)"/></g></g></svg>