<svg xmlns="http://www.w3.org/2000/svg" width="71.929" height="87.939" viewBox="0 0 71.929 87.939"><defs><style>.a{fill:#333;}</style></defs><g transform="translate(0 18.323) rotate(-30)"><path class="a" d="M12.317,80.187a70.1,70.1,0,0,0,6.055-14.463.327.327,0,0,0,.218-.044,11.615,11.615,0,0,0,6.317-6.448.043.043,0,0,0,.044-.044A.586.586,0,0,0,25.3,59.1c3.921-2.657,9.1-4.749,10.891-9.541,1.22-3.267,0-7.667-3.834-8.408-3.572-.7-6.8,2.048-8.277,5.01-1.96,3.964-1.307,8.451.087,12.459a10.575,10.575,0,0,1-5.533,6.012,72,72,0,0,0,2.483-18.253,10.268,10.268,0,0,0,2.657-4.008v-.131c.044,0,.044-.044.087-.087h.044c4.052-2.091,9.149-4.836,11.327-9.061,1.481-2.875,1.264-7.014-2-8.582-3.354-1.612-6.97,1.176-8.582,3.964-2.048,3.485-2.048,7.493-1.7,11.414a.16.16,0,0,1-.044.131.27.27,0,0,0,.087.3c.044.479.087,1,.131,1.481a.436.436,0,0,0-.174.218,10.02,10.02,0,0,1-1.83,3.093,70.613,70.613,0,0,0-1.786-14.812.152.152,0,0,0,.087-.044,6.189,6.189,0,0,0,1.96-3.659c3.79-2.352,7.449-5.489,8.5-10.02C30.658,13.142,29.7,8.48,26.04,7c-4.226-1.655-7.145,2.657-7.885,6.186a18.081,18.081,0,0,0,2.352,12.982c0,.044.044.044.044.087s-.044.087-.044.131a5.148,5.148,0,0,1-1.437,2.962A67.4,67.4,0,0,0,15.8,19.458a.358.358,0,0,0-.218-.218A21.99,21.99,0,0,0,15.41,6.258c-1-3.006-3.485-6.273-6.8-6.23a.329.329,0,0,0-.349.044c-.348.044-.741.087-1.133.174C2.951,1.423,3.125,6.476,4.606,9.613a24.4,24.4,0,0,0,10.281,10.5.288.288,0,0,0,.261.044,65.978,65.978,0,0,1,4.705,18.6A22.823,22.823,0,0,0,16.717,35.1c0-.044.044-.087.044-.131.174-2.4-.871-4.792-1.83-6.927a21.125,21.125,0,0,0-4.226-6.883c-1.917-1.873-5.054-3.006-7.537-2.048a.4.4,0,0,0-.3.131A4.613,4.613,0,0,0,.947,20.9c-2.7,3.834.958,8.277,3.7,10.848,3.18,3.006,7.188,5.271,11.719,4.313.044,0,.044-.044.087-.044a18.119,18.119,0,0,1,3.4,4.313.434.434,0,0,0,.218.174c.131,1.83.218,3.7.218,5.576a.48.48,0,0,0,0,.348q0,2.875-.261,5.751A13.9,13.9,0,0,0,18.634,50.3c-.044-.044-.087-.087-.131-.087a.58.58,0,0,0-.218-.261c-.741-4.226-1.743-8.844-5.4-11.545-2.44-1.83-6.883-2.614-8.8.436h0a.458.458,0,0,0-.218.392c-1.525,3.006.828,6.273,3.18,8.1a16.532,16.532,0,0,0,10.847,3.4c0,.044.044.087.087.131a12.4,12.4,0,0,1,1.655,2.309.5.5,0,0,0,.3.218,67.657,67.657,0,0,1-2.57,12.764,18.63,18.63,0,0,1-1.786-3.311h0a11.867,11.867,0,0,0-2-8.539c-1.176-1.568-3.137-2.527-4.792-.958S7.351,57.534,8.4,59.363c1.394,2.527,4.139,3.834,6.665,4.966a.278.278,0,0,0,.261,0,19.174,19.174,0,0,0,1.7,2.875.043.043,0,0,1,.044.044,65.707,65.707,0,0,1-5.4,12.459C11.315,80.187,12.056,80.666,12.317,80.187ZM33.838,43.07c1.089,5.141-2.265,9.149-6.055,12.285A35.608,35.608,0,0,0,33.838,43.07Zm-1.133.784a34.209,34.209,0,0,1-7.058,12.721A35.183,35.183,0,0,1,32.706,43.854ZM25.3,54.833a14.386,14.386,0,0,1,6.927-11.719A35.5,35.5,0,0,0,25.3,54.833Zm7.754-2.091a29.926,29.926,0,0,1-5.881,4.182c4.269-3.354,8.451-7.711,7.624-13.374C36.888,46.033,35.232,50.563,33.054,52.742Zm-8.713-4.923c1.089-3.093,4.269-6.578,7.885-5.75a15.54,15.54,0,0,0-7.8,14.768A15.513,15.513,0,0,1,24.341,47.819ZM34.1,26.3c2.527,2.44.523,6.97-1.655,9.149a33.407,33.407,0,0,1-7.754,5.4l.261-.261C29.917,37.407,35.624,32.789,34.1,26.3ZM27.478,37.8a30.9,30.9,0,0,0,5.75-11.457C34.448,31.264,31.224,34.967,27.478,37.8Zm-2.352,1.394a52.122,52.122,0,0,1,7.1-12.372A30.6,30.6,0,0,1,25.125,39.193Zm-.7-8.1c.958-2.7,3.659-6.23,6.8-6.055-4.356,2.614-6.4,7.145-7.624,11.893A17.539,17.539,0,0,1,24.428,31.09Zm-.61,8.974c1.089-5.62,2.962-11.588,8.277-14.507a53.124,53.124,0,0,0-8.277,14.594Zm3.4-31.192c2.44,2.222,2.4,6.578,1.176,9.41A14.68,14.68,0,0,1,23.6,24.076,16.093,16.093,0,0,0,27.216,8.872Zm-5.01,15.422A45.71,45.71,0,0,0,26.563,9.744,15.142,15.142,0,0,1,22.206,24.294Zm-.654-.7c.436-5.053,1.133-10.107,4.139-14.289A43.871,43.871,0,0,1,21.553,23.6ZM20.812,22.2c-.479-5.184-.087-10.935,4.618-13.941C22.294,12.227,21.335,17.193,20.812,22.2Zm-2.178-5.968c.087-3.311,1.917-9.453,6.186-8.582-5.228,3.529-5.359,10.194-4.7,15.988A16.7,16.7,0,0,1,18.634,16.235ZM15.105,8.611a21,21,0,0,1,.261,7.188A19.883,19.883,0,0,0,9.573.987C12.622,1.684,14.5,5.866,15.105,8.611ZM8.135.943h.131a19.36,19.36,0,0,1,6.273,14.463A51.817,51.817,0,0,0,8.135.943Zm-1.176.349c.087-.044.218-.087.3-.131a52.354,52.354,0,0,1,6.491,14.725C11.359,11.094,9.094,6.215,6.959,1.292ZM7.22,12.4C5.608,10.179,3.343,5.692,4.911,2.947A29.711,29.711,0,0,0,12.666,17.8,25.605,25.605,0,0,1,7.22,12.4Zm6.317,5.01A28.912,28.912,0,0,1,5.652,2.076l.523-.392C8.484,7,10.923,12.227,13.537,17.411ZM6.218,32.092C3.779,30.044.381,26.734.947,23.248A32.536,32.536,0,0,0,13.45,35.4,13,13,0,0,1,6.218,32.092ZM1.339,22.2c0-.044-.044-.044-.044-.087a4.965,4.965,0,0,1,.436-.828A145.512,145.512,0,0,0,13.45,34.4,31.934,31.934,0,0,1,1.339,22.2Zm.915-1.568h0a1.891,1.891,0,0,1,.3-.261c0,.087.044.131.131.218A76.484,76.484,0,0,1,14.321,34.1,153.037,153.037,0,0,1,2.254,20.635Zm12.459,12.5A77.5,77.5,0,0,0,3.822,20.46,23.42,23.42,0,0,1,14.713,33.138ZM4.171,19.676c2.57-.349,5.838,1.786,7.275,3.79,1.873,2.614,4.1,6.8,4.4,10.281A24.447,24.447,0,0,0,4.171,19.676Zm.61,19.648h0a40.39,40.39,0,0,0,8.931,8.931A16.9,16.9,0,0,1,4.781,39.324Zm4.574,8.582c-2.4-1.35-5.968-4.444-5.054-7.537a18.122,18.122,0,0,0,11.152,9.454A15.148,15.148,0,0,1,9.355,47.906ZM6.262,39.8a59.241,59.241,0,0,1,8.626,8.234A37.757,37.757,0,0,1,6.262,39.8Zm-.436-1.394a.152.152,0,0,1,.087.044c4.792,1.046,7.537,5.01,9.671,9.105A57.168,57.168,0,0,0,5.826,38.409Zm11.24,10.107c-2.265-4.574-5.053-9.323-10.238-10.76,2.4-.7,5.489,1.046,6.97,2.745C15.759,42.765,16.543,45.684,17.066,48.516Zm-4.4,6.143a7.735,7.735,0,0,1,1.263,2.265,11.438,11.438,0,0,1,.784,3.572,23.085,23.085,0,0,0-3.442-6.665A2.242,2.242,0,0,1,12.666,54.658ZM8.484,55.7a2.185,2.185,0,0,1,.218-.566,16.132,16.132,0,0,0,4.749,7.45C10.705,61.193,7.612,58.928,8.484,55.7Zm.871-1.394h0c1.481,2.309,2.832,4.705,4.1,7.145A15.33,15.33,0,0,1,9.355,54.31Zm.828-.392a.043.043,0,0,0-.044-.044.152.152,0,0,0,.087-.044,21.473,21.473,0,0,1,3.354,6.012C12.492,57.839,11.359,55.878,10.183,53.918Z"/></g></svg>