<svg xmlns="http://www.w3.org/2000/svg" width="59.975" height="37.867" viewBox="0 0 59.975 37.867"><defs><style>.a{fill:#333;}</style></defs><path class="a" d="M1095.721,1033.722h0l-.624.125-.832-.291a.414.414,0,0,0-.541.457v.083a46.765,46.765,0,0,0-12.931,4.657c-.457.25-.125,1,.374.748a48.539,48.539,0,0,1,12.723-4.573,19.713,19.713,0,0,0,15.425,15.3c.374.083.54-.374.374-.624a.385.385,0,0,0,.166-.541,27.167,27.167,0,0,0-13.6-14.594,48.218,48.218,0,0,1,14.261-.125.419.419,0,0,0,.457.374c.042,0,.083-.042.125-.042a18.322,18.322,0,0,0,10.727,15.508.336.336,0,0,0,.457-.166.385.385,0,0,0,.457-.457,23.386,23.386,0,0,0-9.812-14.8,46.362,46.362,0,0,1,12.266,4.116.374.374,0,0,0-.042.416,18.152,18.152,0,0,0,14.552,9.147.375.375,0,0,0,.208-.042.414.414,0,0,0,.624-.416,12.069,12.069,0,0,0-15.051-9.9,48.659,48.659,0,0,0-11.85-4.033,40.358,40.358,0,0,0,16.507-9.105h.125a.419.419,0,0,0,.083-.832h-.125a.616.616,0,0,0-.291-.042,20.9,20.9,0,0,0-19.126,9.147.256.256,0,0,0-.042.291,50.808,50.808,0,0,0-12.307-.208,33.455,33.455,0,0,0,15.384-15.841c.166-.291-.125-.54-.416-.54a.472.472,0,0,0-.333-.125A19.733,19.733,0,0,0,1095.721,1033.722Zm30.726,4.615c.208.083.416.208.624.291a11.225,11.225,0,0,1,12.6,8.939,17.137,17.137,0,0,1-13.513-8.316.419.419,0,0,0,.457-.374c-.125-.042-.208-.125-.333-.166C1126.032,1038.67,1126.2,1038.254,1126.448,1038.337Zm-13.97-2.911a22.442,22.442,0,0,1,9.355,13.845,17.555,17.555,0,0,1-9.812-13.721c-.166-.25-.291-.457-.457-.707s.249-.457.416-.208C1112.186,1034.928,1112.311,1035.177,1112.477,1035.427Zm16.382-10.561a.249.249,0,0,0-.042.166,39.779,39.779,0,0,1-14.843,8.066c-.707.416-1.414.832-2.079,1.289-.25.166-.416-.249-.208-.416.25-.166.457-.291.707-.457-.25.042-.457.125-.707.166h-.125A20.022,20.022,0,0,1,1128.859,1024.866Zm-31.682,11.018a26.434,26.434,0,0,1,11.891,13.43,18.953,18.953,0,0,1-14.386-14.552.153.153,0,0,0,.125-.042c.374.166.79.333,1.164.54l-.873-.873c-.208-.208.125-.5.333-.291C1096.012,1034.679,1096.594,1035.3,1097.177,1035.884Zm15.633-18.086a32.75,32.75,0,0,1-15.259,15.093,1.442,1.442,0,0,1-.665.333.337.337,0,0,0-.208.374h-.125c.042-.125.042-.291.083-.416h-.083c-.291-.083-.125-.5.125-.416A18.771,18.771,0,0,1,1112.81,1017.8Z" transform="translate(-1080.578 -1016.168)"/><path class="a" d="M1203.131,1077.555c.208.208-.166.5-.333.291a36.052,36.052,0,0,0-12.141-8.357.487.487,0,0,1-.458.374,17.137,17.137,0,0,0,13.513,8.316,11.182,11.182,0,0,0-12.6-8.939A36.034,36.034,0,0,1,1203.131,1077.555Z" transform="translate(-1144.621 -1046.738)"/><path class="a" d="M1155.1,1045h.125c.249-.042.457-.125.707-.166,4.116-2.536,8.606-4.366,12.64-7.027.25-.166.416.25.208.416-3.576,2.328-7.525,4.075-11.226,6.2a39.829,39.829,0,0,0,14.843-8.066.249.249,0,0,1,.042-.166A20.044,20.044,0,0,0,1155.1,1045Z" transform="translate(-1124.115 -1027.484)"/><path class="a" d="M1163.933,1072.676c.166.25-.166.541-.333.291-2.495-3.7-4.989-7.4-7.4-11.143a17.556,17.556,0,0,0,9.812,13.721,22.61,22.61,0,0,0-9.355-13.845C1159.027,1065.359,1161.48,1069.018,1163.933,1072.676Z" transform="translate(-1124.758 -1042.4)"/><path class="a" d="M1119.4,1034.226h0c.5.166,1.746-1.247,2.037-1.5,1.039-.956,2-2,2.952-2.994a51,51,0,0,0,4.615-5.322.225.225,0,1,1,.374.249,50.331,50.331,0,0,1-5.156,5.946,39.764,39.764,0,0,1-3.285,3.2c-.166.125-.416.374-.665.582a32.749,32.749,0,0,0,15.259-15.093A18.59,18.59,0,0,0,1119.4,1034.226Z" transform="translate(-1103.259 -1017.629)"/><path class="a" d="M1127.414,1072.564c.208.208-.125.5-.333.291-4.116-3.825-7.442-8.482-11.392-12.515-.374-.166-.748-.374-1.164-.541a.153.153,0,0,0-.125.042,18.893,18.893,0,0,0,14.386,14.552,26.11,26.11,0,0,0-11.891-13.43C1120.512,1064.789,1123.589,1069.03,1127.414,1072.564Z" transform="translate(-1100.337 -1041.29)"/><path class="a" d="M1189.5,1093.054a11.888,11.888,0,0,0,.541,2.411,4,4,0,0,1-.749-.915c-.249-.457-1-.125-.748.374a3.965,3.965,0,0,0,1.372,1.5,7.73,7.73,0,0,1-1.746.208c-.541,0-.624.832-.083.832.457,0,.873-.042,1.33-.083l-.166.291c-.25.457.416.915.707.457l.582-1.039c.083-.042.125-.042.208-.083.166.333.374.665.582,1,.291.457.915-.125.624-.541-.083-.125-.125-.208-.208-.333.125,0,.249.042.374.042a.418.418,0,0,0,.083-.832h0a7.307,7.307,0,0,0,1.247-1c.374-.374-.166-1-.541-.624a7.91,7.91,0,0,1-1.663,1.247l.707-1.289c.249-.457-.416-.915-.707-.457-.166.291-.291.541-.457.832a11.128,11.128,0,0,1-.457-2.037A.417.417,0,1,0,1189.5,1093.054Z" transform="translate(-1143.172 -1060.449)"/><path class="a" d="M1168.784,1015.954l1.5,1.913c0,.083-.042.166-.042.249-.624,0-1.247.042-1.871.042-.541,0-.624.832-.083.832.457,0,.915,0,1.331-.042l-1.247,1.123c-.416.374.166,1,.541.624l.915-.832-.083.5c-.125.541.707.582.832.083s.208-1,.333-1.5l.042-.042h.166c.5.665,1.039,1.289,1.538,1.954.333.416.956-.125.624-.541-.374-.457-.748-.956-1.123-1.414l1.372-.042c.54,0,.624-.832.083-.832-.582,0-1.164.042-1.7.042.291-.291.624-.582.915-.832.416-.374-.166-1-.541-.624-.333.333-.707.624-1.039.956.125-.541.208-1.039.333-1.58s-.707-.582-.832-.083c-.083.291-.125.582-.208.915l-1.123-1.372C1169.075,1015,1168.452,1015.538,1168.784,1015.954Z" transform="translate(-1131.604 -1015.281)"/></svg>