<svg xmlns="http://www.w3.org/2000/svg" width="72.479" height="60.413" viewBox="0 0 72.479 60.413"><defs><style>.a{fill:#333;}</style></defs><g transform="matrix(0.695, 0.719, -0.719, 0.695, 45.798, -17.274)"><path class="a" d="M21.577,67.588c3.224-4.7,6.23-9.584,8.974-14.551a.16.16,0,0,0,.043-.131c.044.044.087.044.174.087,1.873.828,3.442-.958,3.921-2.57.436-1.525.218-3.834-1.743-4.051a2.919,2.919,0,0,0-2.962,1.96.365.365,0,0,0-.349.261,10.977,10.977,0,0,0-.218,1.351c0,.044-.044.131-.044.174v.218a2.9,2.9,0,0,0,.653,2.178c-.044.044-.131.087-.174.131C26.8,58.091,23.537,63.362,19.965,68.5a.043.043,0,0,1-.044.044.043.043,0,0,0-.043.044,190.027,190.027,0,0,0,5.968-29.145c0-.131,0-.218-.087-.261C35.909,41.231,39.307,22.5,28.59,20.756c-.087,0-.174-.044-.261-.044.087-.044.218-.087.218-.261A100.952,100.952,0,0,1,31.422,7.12a.386.386,0,0,0-.741-.218,86.476,86.476,0,0,0-2.875,13.331.387.387,0,0,0,.261.436A8.692,8.692,0,0,0,18.919,27.6c-1.176,4.923,1.656,9.628,5.838,12.024.131.044.218.087.3.044A190.29,190.29,0,0,1,19.485,67.2a188.46,188.46,0,0,1-3.572-47.442c2.091-.349,4.139-1.394,4.531-3.659a4.28,4.28,0,0,0-3.18-4.966,4.328,4.328,0,0,0-4.923,2.832,4.373,4.373,0,0,0,2.44,5.141c-.436.087-.436.784.044.741h.261a190.233,190.233,0,0,0,3.093,45.046c.132,1.129.674,4.313.7,4.574l.087.087a.368.368,0,0,0,.523.174A6.466,6.466,0,0,0,21.577,67.588ZM30.2,50.162c.261-1.176.7-2.7,2.047-3.006,1.917-.436,2.135,1.7,1.743,3.006-.349,1.176-1.83,3.093-3.224,1.873A2.223,2.223,0,0,1,30.2,50.162ZM24.844,38.617c-3.354-2.135-5.75-5.838-5.228-9.889.479-4.051,3.747-7.58,8.016-7.406,11.022.436,7.885,19.909-2.309,16.816A.364.364,0,0,0,24.844,38.617ZM15.434,18.4a3.707,3.707,0,0,1-2.222-4.356,3.577,3.577,0,0,1,4.356-2.178,3.449,3.449,0,0,1,2.222,4.008c-.392,2-2.309,2.832-4.139,3.049A.46.46,0,0,0,15.434,18.4Z" transform="translate(0 5.637)"/><path class="a" d="M7.567.08C5.258-.312-.449.69.248,4A6.2,6.2,0,0,0,3.3,11.276,6.3,6.3,0,0,0,11.967,8.1,5.849,5.849,0,0,0,7.567.08ZM10.486,9.1a5.467,5.467,0,0,1-7.667.958A5.273,5.273,0,0,1,.858,4.829c.218,0,.436-.174.3-.436a1.027,1.027,0,0,1-.087-.349,6.8,6.8,0,0,1,.828-1.7.269.269,0,0,0,.044-.3A7.037,7.037,0,0,1,4.779.908a6.989,6.989,0,0,1,3.659.218C11.706,2.3,12.533,6.441,10.486,9.1Z" transform="translate(25.99 0)"/></g></svg>