<svg xmlns="http://www.w3.org/2000/svg" xmlns:xlink="http://www.w3.org/1999/xlink" width="42" height="42" viewBox="0 0 42 42"><defs><style>.a,.d{fill:#fff;}.a{stroke:#707070;}.b{clip-path:url(#a);}.c{fill:#333;}</style><clipPath id="a"><rect class="a" width="42" height="42" transform="translate(984 1839)"/></clipPath></defs><g class="b" transform="translate(-984 -1839)"><g transform="translate(984 1846.596)"><path class="c" d="M45.2,23.4c0,7.376-5.6,13.4-12.6,13.4-6.933,0-12.6-6.028-12.6-13.4h0C20,16.028,25.6,10,32.533,10,39.6,10,45.2,16.028,45.2,23.4Z" transform="translate(-3.2 -10)"/><path class="c" d="M12.467,10C5.6,10.071,0,16.028,0,23.4s5.6,13.4,12.6,13.4a12.33,12.33,0,0,0,8.467-3.475h0a12.451,12.451,0,0,0,1.267-1.418h-2.6a16.348,16.348,0,0,1-.933-1.348h4.467A9.274,9.274,0,0,0,24,29.149H18.067a8.775,8.775,0,0,1-.533-1.418h6.933a14.9,14.9,0,0,0,.667-4.255,19.438,19.438,0,0,0-.267-2.837H17.133a10.916,10.916,0,0,1,.333-1.418H24.4a8.775,8.775,0,0,0-.533-1.418H18a14.359,14.359,0,0,1,.733-1.418H23.2a6.728,6.728,0,0,0-1-1.418H19.733A11.754,11.754,0,0,1,21,13.617a11.9,11.9,0,0,0-8.467-3.475C12.533,10,12.533,10,12.467,10Z" transform="translate(0 -10)"/><g transform="translate(1.2 9.929)"><path class="d" d="M19.949,28.067l.2-1.206a2.736,2.736,0,0,1-.333.071c-.467,0-.533-.284-.467-.426l.4-2.482h.733l.2-1.348h-.667l.133-.851H18.816s-.8,4.681-.8,5.248c0,.851.467,1.206,1.067,1.206A1.948,1.948,0,0,0,19.949,28.067Z" transform="translate(-4.083 -21.187)"/><path class="d" d="M20.873,25.889a2.182,2.182,0,0,0,2.333,2.482,3.278,3.278,0,0,0,1.4-.213l.267-1.348a3.807,3.807,0,0,1-1.4.355c-1.467,0-1.2-1.135-1.2-1.135h2.733a9.732,9.732,0,0,0,.2-1.277A1.873,1.873,0,0,0,23.273,22.7C21.873,22.556,20.873,24.116,20.873,25.889Zm2.333-2.057c.733,0,.6.922.6.993H22.34C22.34,24.754,22.473,23.832,23.206,23.832Z" transform="translate(-4.54 -21.279)"/><path class="d" d="M33.032,27.991l.267-1.56a3.137,3.137,0,0,1-1.133.355c-.933,0-1.333-.78-1.333-1.631,0-1.7.8-2.624,1.733-2.624a2.148,2.148,0,0,1,1.2.426l.2-1.489a4.456,4.456,0,0,0-1.533-.355c-1.533,0-3.067,1.418-3.067,4.113,0,1.773.8,2.979,2.4,2.979A5.657,5.657,0,0,0,33.032,27.991Z" transform="translate(-5.898 -21.111)"/><path class="d" d="M11.1,22.54a4.474,4.474,0,0,0-1.6.284l-.2,1.206a3.739,3.739,0,0,1,1.467-.284c.467,0,.867.071.867.5,0,.284-.067.355-.067.355h-.6c-1.133,0-2.4.5-2.4,2.128,0,1.277.8,1.56,1.267,1.56a1.96,1.96,0,0,0,1.4-.638l-.067.567h1.2l.533-3.9A1.613,1.613,0,0,0,11.1,22.54Zm.267,3.191c0,.213-.133,1.348-.933,1.348a.54.54,0,0,1-.533-.567c0-.355.2-.851,1.2-.851A1,1,0,0,0,11.371,25.731Z" transform="translate(-2.571 -21.263)"/><path class="d" d="M14.946,28.276a1.734,1.734,0,0,0,2-1.844c0-1.773-1.6-1.418-1.6-2.128,0-.355.267-.5.733-.5.2,0,.933.071.933.071l.2-1.277a4.777,4.777,0,0,0-1.267-.142,1.753,1.753,0,0,0-2,1.844c0,1.631,1.667,1.489,1.667,2.128,0,.426-.467.5-.8.5a4.127,4.127,0,0,1-1.2-.213l-.2,1.277C13.479,28.134,13.813,28.276,14.946,28.276Z" transform="translate(-3.346 -21.255)"/><path class="d" d="M46.181,21.27l-.267,1.915a1.829,1.829,0,0,0-1.267-.709c-1.2,0-2.267,1.56-2.267,3.4,0,1.135.533,2.34,1.667,2.34a1.741,1.741,0,0,0,1.267-.567l-.067.5h1.333l1-6.809Zm-.6,3.759c0,.78-.333,1.773-1.067,1.773-.467,0-.733-.426-.733-1.135,0-1.135.467-1.844,1.067-1.844C45.314,23.823,45.581,24.178,45.581,25.029Z" transform="translate(-7.981 -21.128)"/><path class="d" d="M2.7,28.078l.8-5.106.133,5.106h.933L6.3,22.972l-.733,5.106h1.4L8.029,21.27h-2.2L4.5,25.454,4.429,21.27H2.5L1.429,28.078Z" transform="translate(-1.429 -21.128)"/><path class="d" d="M27.26,28.23c.4-2.34.467-4.255,1.4-3.9a5.824,5.824,0,0,1,.467-1.631H28.86c-.6,0-1.067.851-1.067.851l.133-.78H26.66L25.794,28.3H27.26Z" transform="translate(-5.327 -21.28)"/><path class="d" d="M36.9,22.54a4.474,4.474,0,0,0-1.6.284l-.2,1.206a3.739,3.739,0,0,1,1.467-.284c.467,0,.867.071.867.5,0,.284-.067.355-.067.355h-.6c-1.133,0-2.4.5-2.4,2.128,0,1.277.8,1.56,1.267,1.56a1.96,1.96,0,0,0,1.4-.638l-.067.567h1.2l.533-3.9A1.59,1.59,0,0,0,36.9,22.54Zm.333,3.191c0,.213-.133,1.348-.933,1.348a.54.54,0,0,1-.533-.567c0-.355.2-.851,1.2-.851C37.165,25.731,37.165,25.731,37.232,25.731Z" transform="translate(-6.698 -21.263)"/><path class="d" d="M40.594,28.23c.4-2.34.467-4.255,1.4-3.9A5.824,5.824,0,0,1,42.46,22.7h-.267c-.6,0-1.067.851-1.067.851l.133-.78H39.994L39.127,28.3h1.467Z" transform="translate(-7.46 -21.28)"/></g></g></g></svg>