<svg xmlns="http://www.w3.org/2000/svg" width="75.227" height="56.159" viewBox="0 0 75.227 56.159"><defs><style>.a{fill:#333;}</style></defs><path class="a" d="M37.015,1.362C36.143-.293,33.922-.163,32.4.316a14.787,14.787,0,0,0-6.8,4.923.32.32,0,0,0-.087.261,24.905,24.905,0,0,0-7.145,8.887C16.626,11.295,19.5,7.94,18.151,4.76c-.653-1.568-2.4-2.832-4.139-2.048-4.7,2.222.7,9.8,2.7,11.98l.087.087a1.179,1.179,0,0,0,1,.784A55.131,55.131,0,0,0,14.579,24.1a.278.278,0,0,0-.261,0c-3.747,1.089-4.226-5.228-7.362-6.23a2.683,2.683,0,0,0-3.572,2.135c-1.089,5.489,7.45,5.881,10.978,5.01-.218.828-.479,1.612-.654,2.4-.741,2.788-1.35,5.576-1.83,8.408a.4.4,0,0,0-.523.044l-.044.044c-3.224.3-5.533-2.614-8.8-2.527A2.31,2.31,0,0,0,.159,36.518c.7,2.048,3.442,2.7,5.358,2.745a8.946,8.946,0,0,0,6.23-2.483h.044a89.532,89.532,0,0,0-1.046,12.764c-2.135.261-5.533-1.438-6.927.958A2.04,2.04,0,0,0,5.43,53.509c1.786.349,3.7-.915,5.271-2.048a88.992,88.992,0,0,0,1.481,15.2c.087.566.958.3.828-.218a83.979,83.979,0,0,1-1.438-14.768c2.047,1.089,4.531,2.222,6.491.828a2.576,2.576,0,0,0-.174-4.444c-2.222-1.35-4.531.3-6.317,1.655a95.169,95.169,0,0,1,.915-12.2,10.01,10.01,0,0,0,5.4,3.485c1.743.436,4.7.654,5.838-1.089,1-1.525-.3-2.919-1.7-3.485-2.962-1.133-6.143.61-9.148-.392a.5.5,0,0,0-.131-.261c.349-1.96.7-3.921,1.176-5.838.349-1.394.7-2.919,1.133-4.444,1.917,1.873,3.964,3.79,6.622,4.444,1.655.392,4.1.349,4.966-1.394s-.392-3.7-2.048-4.356c-3.049-1.176-6.143.915-9.236.261a60.77,60.77,0,0,1,2.875-7.842h.044a.43.43,0,0,0,.3.3c2.832.828,6.012,2.222,8.974,2.4,1.525.087,3.529-.566,3.834-2.309a2.943,2.943,0,0,0,.915-2.265c-.044-1.873-1.96-2.57-3.572-2.309a40.83,40.83,0,0,0-8.146,2.527H20.46a.453.453,0,0,0-.349.174l-1.438.523a24.3,24.3,0,0,1,7.58-9.628.16.16,0,0,0,.131.044c2.657.392,5.75.915,8.277-.261C36.187,5.109,37.973,3.235,37.015,1.362ZM15.886,4.673c-.044-.087-.131-.218-.174-.3a.435.435,0,0,0-.523-.174.492.492,0,0,0-.479.131c0-.044.044-.087.044-.131a.5.5,0,0,0-.3-.654,1.679,1.679,0,0,1,1.438.087c.087.261.131.523.218.784A.58.58,0,0,0,15.886,4.673Zm.741,8.626h0a4.949,4.949,0,0,0,.261-1.089,4.988,4.988,0,0,0,.261,1.743Zm.7-3.964a17.983,17.983,0,0,0-.3-4.574,3.578,3.578,0,0,1,.566,1.525A10.211,10.211,0,0,1,17.323,9.334Zm-11.588,9.8c.174-.044.3-.044.436-.087a1.884,1.884,0,0,1-.044.218.311.311,0,0,0-.261.131.43.43,0,0,0-.784.131.435.435,0,0,0-.218-.174A3.614,3.614,0,0,1,5.735,19.136Zm1.307,4.792a5.755,5.755,0,0,1-2.135-1.35A.425.425,0,0,0,5.3,22.4a.262.262,0,0,0,.174-.044,6.864,6.864,0,0,0,.653,1.046.36.36,0,0,0,.523.044c.044.044.087.044.131.087a.886.886,0,0,1,.261.392h0ZM9.22,21.445a.428.428,0,0,0-.566-.174,4.546,4.546,0,0,0-.261-.7.393.393,0,0,0-.479-.174c-.044-.174-.044-.392-.087-.566a.433.433,0,0,0-.61-.261l-.131-.523c.61.131.958.523,1.525,1.394.3.436.566.915.871,1.438a.094.094,0,0,0-.087.087A1.067,1.067,0,0,0,9.22,21.445Zm.218,3.049a.226.226,0,0,0,.087-.174v-.087l.131.131a.41.41,0,0,0,.653-.087c.131.087.218.174.349.261A5.906,5.906,0,0,1,9.438,24.495Zm1.873.044c.044-.087.131-.174.131-.261a1.322,1.322,0,0,0,.3.218A1.633,1.633,0,0,1,11.312,24.538ZM3.034,34.471c-.218-.261-.784-.174-.741.261,0,.3.044.566.044.871,0,.174.044.392.044.566l-.131-.392c-.044-.174-.044-.392-.087-.566,0-.087,0-.218-.044-.261a.391.391,0,0,0-.436-.3c.3-.479.871-.566,1.612-.3h.044A.471.471,0,0,0,3.034,34.471Zm2.745,2.222a3.4,3.4,0,0,1-.174-.915v-.7a2.123,2.123,0,0,0,.3.131.467.467,0,0,0-.087.261,2.843,2.843,0,0,0,.349,1.612C6.215,37.608,6.171,37.782,5.779,36.693Zm.915,13.461v.131h0v.174c0-.044-.044-.087-.044-.174a.411.411,0,0,0-.741-.131.24.24,0,0,0-.218-.131,2.08,2.08,0,0,1,1.176-.044A.16.16,0,0,0,6.694,50.154Zm.915.958c0-.044-.044-.044-.044-.087a4.225,4.225,0,0,0-.044-.741c0-.087-.044-.131-.087-.218.087,0,.131.044.218.044A7.72,7.72,0,0,1,7.609,51.113Zm1.176-.3a.914.914,0,0,1-.174-.479c.087,0,.174.044.261.044A1.548,1.548,0,0,1,8.785,50.808Zm5.141-.784c0,.218-.044.392-.044.61a1.694,1.694,0,0,1-.087-.653c0-.174.044-.392.044-.566a.63.63,0,0,0-.087-.3.331.331,0,0,1,.174-.087A1.95,1.95,0,0,0,13.925,50.023Zm.523,2c0-.044.044-.087.044-.131.044-.131.044-.218.087-.349a3.811,3.811,0,0,0,.349.436.446.446,0,0,0,.741-.218.458.458,0,0,0,.566,0c.087.131.174.3.261.436A4.158,4.158,0,0,1,14.448,52.027Zm3.311-1.263a1.278,1.278,0,0,1-.174-.7c0-.131.044-.218.044-.349A3.811,3.811,0,0,1,17.759,50.764Zm-.3-1.568a.4.4,0,0,0-.653.218,1.206,1.206,0,0,0-.044.392,4.3,4.3,0,0,0-.087.741,2.932,2.932,0,0,1-.044-.871c.044-.218.044-.392.087-.61.044-.479-.741-.61-.871-.131v.087c-.044-.436-.784-.523-.828-.044v.131h0v.044a3.3,3.3,0,0,0-.044.653,2.123,2.123,0,0,1-.044.523,1.024,1.024,0,0,1-.087-.348,6.549,6.549,0,0,0,0-1.307v-.087c.087-.044.174-.044.261-.087C16.234,48.15,17.062,48.412,17.454,49.2ZM20.809,37a3.7,3.7,0,0,1,1.7.741.4.4,0,0,0-.479.087.42.42,0,0,0-.479-.436.447.447,0,0,0-.828,0c-.044.087-.044.174-.087.218v-.174a.31.31,0,0,0-.131-.261c0-.087-.087-.174-.174-.261A1.566,1.566,0,0,1,20.809,37ZM18.02,40.134a8.776,8.776,0,0,1-1.612-.566c.044-.044.131-.087.174-.131a.792.792,0,0,0,.653.349,1.7,1.7,0,0,0,.7-.044.9.9,0,0,0,.653.218.646.646,0,0,0,.3-.044c.044.131.131.261.174.392A10.454,10.454,0,0,1,18.02,40.134Zm1.873-3.267a.446.446,0,0,0-.218.261c-.044.087-.044.218-.087.349a.459.459,0,0,0-.741.174c0,.044-.044.087-.044.131a1.054,1.054,0,0,0-.174-.566.446.446,0,0,0-.828.218c.044.087.044.131.087.218h0v.044c.044.349-.131.61-.61.741a1.136,1.136,0,0,0,.131-.479c-.044-.261.044-.392-.087-.7a.443.443,0,0,0-.392-.3A16.844,16.844,0,0,1,19.894,36.867Zm-3.659.174c.218-.044.479-.044.7-.087a.418.418,0,0,0-.392.3c-.087.261-.218.479-.3.741a3.53,3.53,0,0,1,0-.958Zm-.871.087a3.259,3.259,0,0,1-.174.7l-.044-.3a.391.391,0,0,0-.087-.392Zm-1.786-.087c-.044.044-.044.087-.087.174a.393.393,0,0,1-.044.218c-.131-.174-.3-.3-.436-.479A2.994,2.994,0,0,0,13.577,37.041Zm7.014-9.5c-.131.479-.218,0-.261-.392a2.552,2.552,0,0,0,.087-.566,4.765,4.765,0,0,0,.218.741A1.883,1.883,0,0,1,20.591,27.544Zm4.1-2.352a.634.634,0,0,0-.261.392v.261l-.131-.261a.409.409,0,0,0-.7-.044v-.218a.449.449,0,0,0-.871-.131,5.678,5.678,0,0,0-.131.566,10.926,10.926,0,0,0-.174-1.176A4.221,4.221,0,0,1,24.686,25.192Zm-3.311,3.137a3.045,3.045,0,0,0,.436.349.424.424,0,0,0,.566-.131c.087.131.174.218.261.348a.459.459,0,0,0,.741-.174c.044-.131.044-.261.087-.392h.218a.552.552,0,0,0,.261-.044.828.828,0,0,0,.871.218,1.545,1.545,0,0,0,.392-.174,2.757,2.757,0,0,1-2.091.828,6.93,6.93,0,0,1-2.135-.479C21.157,28.72,21.288,28.546,21.375,28.328Zm-.741-3.616a.226.226,0,0,0-.087.174,2.3,2.3,0,0,0-.131.523v-.218a.5.5,0,0,0-.261-.392C20.329,24.756,20.5,24.756,20.634,24.713Zm-1,.174a.605.605,0,0,0-.131.174c-.044.174-.131.349-.174.566a2.546,2.546,0,0,0-.087-.566c0-.044,0-.044-.044-.087A3.772,3.772,0,0,0,19.632,24.887Zm-2.962.479v.523l-.523-.523Zm14.2-10.63a1.174,1.174,0,0,1,.131.741.782.782,0,0,0-.218-.3A1.919,1.919,0,0,0,30.872,14.736ZM27.038,18.4h0a1.676,1.676,0,0,0,.741-.349,5.333,5.333,0,0,0,.828-.087C28.912,18.57,28.389,18.7,27.038,18.4Zm2.483-5.184h0a.618.618,0,0,0-.392.349,1.379,1.379,0,0,0-1.612.174c-.131.044-.218.087-.348.131a3.75,3.75,0,0,0-.7-.044A8.017,8.017,0,0,1,29.521,13.212Zm-2.962,4.879a.911.911,0,0,0,.174.261c-.436-.087-.915-.218-1.351-.349.3.044.566.044.871.087Zm-1.046-2.265c0,.044.044.087.087.131a2.364,2.364,0,0,0-.784.436h-.479a.393.393,0,0,0-.261-.261c-.3-.087-.61-.218-.915-.3C23.945,15.869,24.729,15.825,25.514,15.825Zm-4.966.087.392.131h-.131a.4.4,0,0,0-.261.174c-.174-.044-.392-.087-.566-.131C20.155,16.043,20.329,15.956,20.547,15.913Zm7.275-11.85c.3-.3.61-.566.958-.871a.527.527,0,0,0,.3.3C28.65,3.671,28.258,3.845,27.822,4.063Zm4.7,1.22c-.044.087-.087.131-.087.218-.087,0-.174.044-.261.044a11.849,11.849,0,0,1-2.483.087A18.573,18.573,0,0,0,32.745,4.8h.131C32.789,4.934,32.658,5.109,32.527,5.283Zm2.048-3.834c-.3.174-.61.392-.915.566V1.754a.455.455,0,0,0-.566-.436l-1.263.436a.233.233,0,0,0-.174-.131.288.288,0,0,0,.044-.261A5.794,5.794,0,0,1,33.878.883a2.922,2.922,0,0,1,1.525.349.359.359,0,0,0-.349.218v.044C34.967,1.362,34.793,1.318,34.575,1.449ZM35.1,4.5a1.843,1.843,0,0,1-.3.218,1.094,1.094,0,0,0,.174-.3c.044,0,.044-.044.087-.044a3.217,3.217,0,0,0,.871-2.614A2.132,2.132,0,0,1,35.1,4.5Z" transform="translate(75.227 20.699) rotate(108)"/></svg>