<svg xmlns="http://www.w3.org/2000/svg" width="78.662" height="71.517" viewBox="0 0 78.662 71.517"><defs><style>.a{fill:#333;}</style></defs><path class="a" d="M68.6,4.831c-1.917-6.055-8.974-5.446-13.723-3.4C49.3,3.829,44.6,8.8,43.421,14.851A16.327,16.327,0,0,0,50,31.362,67.3,67.3,0,0,0,34.752,57.98a116.414,116.414,0,0,0-3.485-14.333c-1.046-3.311-2.527-6.491-5.62-8.147,5.446-2.178,6.143-9.149,4.008-14.071a34.254,34.254,0,0,0-6.578-9.41,18.666,18.666,0,0,0-9.061-5.707C7.655,4.788,2.209,8.4.554,14.59A19.724,19.724,0,0,0,5.3,32.495c4.836,5.1,12.764,6.622,18.863,3.093a.393.393,0,0,0,.261.261c4.574,1.7,5.794,6.883,6.927,11.109a112.34,112.34,0,0,1,2.875,13.156c.087.523.871.3.828-.218h0A66.926,66.926,0,0,1,50.74,31.754c.044-.044.044-.044.044-.087,5.707,1.525,11.5-1.7,14.55-6.535a24.674,24.674,0,0,0,3.311-9.846C69.168,12.019,69.647,8.1,68.6,4.831ZM24.689,34.194c-.654-.828-1.307-1.655-1.96-2.44.436-2.265.871-4.487,1.307-6.752.087-.566-.741-.784-.828-.218-.218,1.046-.392,2.091-.61,3.137a15.739,15.739,0,0,1-.523,2.962c-1.568-2-3.137-3.964-4.661-6.012,1.525-1.786.3-4.531,1.481-6.491.3-.479-.479-.915-.741-.436-1.133,1.873-.174,4.051-1.133,5.925-.044.087-.131.174-.174.261-1-1.307-2-2.614-2.962-3.964a5.937,5.937,0,0,0,.61-2.44c.261-1.35.479-2.7.741-4.1.087-.566-.741-.784-.828-.218-.174,1-.349,2.048-.566,3.049a11.318,11.318,0,0,1-.479,2.745c-.044.044-.044.087-.087.131-1.133-1.568-2.265-3.093-3.4-4.7-.3-.436-1.089,0-.741.436,1.133,1.568,2.265,3.137,3.442,4.7a8.152,8.152,0,0,1-1.743-.174c-1-.131-2-.261-3.006-.349-.566-.087-.566.784,0,.871,1.35.174,2.657.349,4.008.479a3.514,3.514,0,0,0,1.351,0c1,1.35,2,2.7,3.049,4.051-1.438.784-3.921-.218-5.446.218-.523.131-.3,1,.218.828,1.83-.479,4.1.741,5.794-.3,1.525,2,3.049,3.964,4.618,5.925a14.156,14.156,0,0,1-2.483-.174c-1.133-.044-2.309-.131-3.442-.174-.566-.044-.566.828,0,.871l6.622.3c.653.828,1.307,1.655,1.96,2.44C17.805,38.376,9.7,36.415,5.128,30.8.728,25.306-.971,15.94,3.778,10.1c2.7-3.311,7.145-4.008,11.065-2.745,3.834,1.22,6.84,4.1,9.366,7.1,2.614,3.18,5.228,6.8,5.794,10.978.479,3.659-1.089,7.667-4.618,9.149C25.342,34.368,25.037,34.019,24.689,34.194ZM67.12,18.815c-1.83,6.927-7.885,13.984-15.727,12.111.436-.653.915-1.35,1.351-2a26.7,26.7,0,0,1,7.319-1.917c.566-.044.566-.915,0-.871A28.04,28.04,0,0,0,53.528,27.7c1.089-1.786,2.091-3.616,3.05-5.446,2.309-1.046,4.618-2.135,6.927-3.18.523-.218.087-1-.436-.741-1.96.915-3.921,1.786-5.881,2.7.958-1.96,1.786-3.964,2.57-6.012.7.131,1.438-.479,1.96-.784,1.307-.741,2.57-1.438,3.877-2.178.479-.261.044-1.046-.436-.741-.828.436-1.612.915-2.44,1.35-.523.3-1.83,1.351-2.44,1.351a.262.262,0,0,1-.174-.044,77.592,77.592,0,0,0,2.44-8.234.428.428,0,1,0-.828-.218,67.937,67.937,0,0,1-2.265,7.711A22.551,22.551,0,0,1,58.1,8.708c-.174-.523-1-.3-.828.218.436,1.481.871,2.962,1.351,4.444a4.638,4.638,0,0,0,.392,1.089c-.828,2.178-1.743,4.356-2.745,6.448-.61-1.7-1.22-3.354-1.786-5.053-.174-.523-1.046-.3-.828.218.7,1.96,1.394,3.921,2.091,5.925-.915,1.873-1.96,3.659-3.049,5.446A11.573,11.573,0,0,0,50.609,23c-.348-.436-1.089,0-.741.436a11.866,11.866,0,0,1,2.178,5.1c-.479.741-.958,1.481-1.438,2.178A15.446,15.446,0,0,1,44.99,12.76,18.945,18.945,0,0,1,60.542.867C65.334.518,68.079,3.524,68.3,8.229A36.257,36.257,0,0,1,67.12,18.815Z" transform="matrix(-0.985, 0.174, -0.174, -0.985, 78.662, 59.496)"/></svg>