<svg xmlns="http://www.w3.org/2000/svg" width="59.416" height="57.433" viewBox="0 0 59.416 57.433"><defs><style>.a{fill:#333;}</style></defs><path class="a" d="M1040.081,1309.914a1.559,1.559,0,0,0,1.5-1,1.2,1.2,0,0,0-.54-1.622,1.622,1.622,0,0,0-1.871.707c-.083.125-.083.208.042.249s.333-.208.374-.291c.25-.374,1-.166,1.247.083a1.021,1.021,0,0,1,.166,1.081c-.416.832-1.538-.125-1.538-.748,0-.291-.541.125-.541.333a1.1,1.1,0,0,0,.125.5l-1.663,1.621a45.593,45.593,0,0,1,1.33-5.072c.166-.083.333-.291.249-.416,0-.042-.042-.083-.042-.166a12.123,12.123,0,0,1,2.037-3.576c-.083-.083-.166-.125-.249-.208a11.975,11.975,0,0,0-2,3.285c-.291-.707-.541-1.372-.832-2.079-.042-.042-.083-.083-.166-.042a1.194,1.194,0,0,0,.042-1.33,1.093,1.093,0,0,0-1.622-.083,1.274,1.274,0,0,0-.5,1.58,1.136,1.136,0,0,0,1.538.374c.042,0,.042-.042.083-.042h.042v.042c.333.832.665,1.7,1,2.536a35.054,35.054,0,0,0-1.289,4.532c-.416,1.621-.79,3.243-1.206,4.865a22.917,22.917,0,0,1-2.453-3.243,11.151,11.151,0,0,1-1.206-4.158l-.125-.873v-.042a13.231,13.231,0,0,1,.665-1.331.991.991,0,0,0,.374.125,1.522,1.522,0,0,0,1.5-.956,1.093,1.093,0,0,0-.541-1.538,1.539,1.539,0,0,0-1.788.79c-.083.125-.042.208,0,.208a.38.38,0,0,0-.125.208,1.188,1.188,0,0,0,.333.956c-.042.042-.042.083-.083.125-.125.291-.291.582-.416.873-.374-1.912-1.081-3.742-3.118-4.407a.315.315,0,0,0-.166.042,1.469,1.469,0,0,0-.748-1.414,1.5,1.5,0,0,0-1.829.79,1.128,1.128,0,0,0,.5,1.746,1.461,1.461,0,0,0,1.455-.374c.042.042.083.042.166.042a.559.559,0,0,0,.291-.249c2.495.873,2.827,3.576,3.16,5.9-.457-.291-.915-.624-1.372-.915h-.042a1.215,1.215,0,0,0-.79-1.039,1.477,1.477,0,0,0-1.58.749.938.938,0,0,0,.333,1.414,1.285,1.285,0,0,0,1.455-.541.25.25,0,0,1-.042.166c-.042.166.166.083.249.083.042-.042.125-.083.166-.125l1.7,1.123h.042v.083c.457,2.578,1.913,4.49,3.617,6.445.083.083.208,0,.333-.083-.208.79-.374,1.58-.582,2.328a16.4,16.4,0,0,0-.624,4.906c-1.622-2.2-3.2-4.449-4.781-6.652.083-.166.125-.291-.083-.208a.041.041,0,0,0-.042.042c-.291-.416-.624-.832-.915-1.247a60.177,60.177,0,0,0-6.2-7.151,19.464,19.464,0,0,1-.873-4.324,12.963,12.963,0,0,0-.374-1.829.315.315,0,0,0,.083-.166,6.19,6.19,0,0,0,.582-2.287,1.466,1.466,0,0,0,.707-.5.987.987,0,0,0-.042-1.5c-1.164-.79-2.62,1.206-1.372,1.913.042.042.125,0,.166,0h0v.042a5.855,5.855,0,0,1-.291,1.871,16.049,16.049,0,0,0-.79-2.245c.083-.125.125-.25-.042-.25h-.083a41.3,41.3,0,0,0-4.2-7.151l.873.125c.083,0,.125-.042.208-.083l-.5-.541-1-.125a.216.216,0,0,1-.083-.167c-.042-.083-.208,0-.333.083-.125,0-.25-.042-.374-.042-.208-.042-.624.5-.416.541.25.042.5.042.748.083a48.11,48.11,0,0,1,4.324,7.151,1.882,1.882,0,0,1-.707-.457c-.083-.083-.208,0-.333.083v-.042a1.531,1.531,0,0,0-1.247-1.58,1.771,1.771,0,0,0-1.7,1.081,1.362,1.362,0,0,0,.624,1.913,1.843,1.843,0,0,0,2.12-.832c.042-.083.083-.125.042-.166a2.217,2.217,0,0,0,1.5.624c.083.166.125.333.208.5a18.631,18.631,0,0,1,1.164,4.532c.125.956.249,1.871.457,2.786-.665-.624-1.33-1.289-2-1.871,0-.042,0-.125-.042-.125l-.208-.083c-.374-.333-.707-.624-1.081-.956a74.147,74.147,0,0,1-7.4-7.027v-.042c-.083-.748-.166-1.538-.25-2.287a1.833,1.833,0,0,0,1.289-1.289,1.165,1.165,0,0,0-1.164-1.538,1.735,1.735,0,0,0-1.663,1.33,1.368,1.368,0,0,0,1,1.5.25.25,0,0,0-.042.166c.042.5.083.956.166,1.455a40.124,40.124,0,0,1-2.495-3.285c-.748-1.081-1.455-2.245-2.079-3.368,0-.042.042-.042.042-.083a5.343,5.343,0,0,1-.79-.166h-.166c.374.624.707,1.289,1.081,1.913.416.665.832,1.289,1.247,1.912l-.624-.249h-.125a1.278,1.278,0,0,0-1.081-1.123,1.842,1.842,0,0,0-1.913,1.33,1.384,1.384,0,0,0,1.247,1.7,1.588,1.588,0,0,0,1.164-.582h.083a.733.733,0,0,0,.374-.333,2.88,2.88,0,0,0,.125-.333c.374.166.748.291,1.164.457.042.042.125,0,.208-.042a50.522,50.522,0,0,0,8.108,8.773c.457.374.915.79,1.331,1.164-.042-.041-.125-.041-.166-.083a.153.153,0,0,0-.042-.125,39.937,39.937,0,0,0-4.865-1.289h-.083c-.541-.125-1.081-.208-1.663-.291a.275.275,0,0,0,.042-.249,10.151,10.151,0,0,1-.582-1.164,1.423,1.423,0,0,0,.416-1.622,1.11,1.11,0,0,0-1.621-.333,1.326,1.326,0,0,0-.707,1.58,1.2,1.2,0,0,0,1.33.707c.166.333.333.624.5.956-.79-.125-1.58-.208-2.37-.291v.582c1.372.125,2.7.333,4.075.582l-.665.665-.042.042h-.291c.042-.083.042-.166-.042-.166-1.372-.25-2.744,1.788-1.33,2.619,1.372.832,2.994-1.164,1.913-2.287l.79-.79a42.789,42.789,0,0,1,4.532,1.206c0,.042.042.042.042.083.832.374,1.663.79,2.536,1.164,1.123,1,2.2,2.037,3.285,3.077a.593.593,0,0,1,.083.25c.042.083.125.083.208.042a54.836,54.836,0,0,1,4.366,4.906c.748.956,1.5,1.954,2.245,2.952-2.412.582-4.532-.915-6.652-2.328-.333-.748-.707-1.5-1.04-2.245a1.262,1.262,0,0,0,.208-1.538,1.08,1.08,0,0,0-1.58-.042,1.217,1.217,0,0,0-.457,1.538,1.069,1.069,0,0,0,1.289.416c.208.416.374.79.582,1.206-1.829-1.081-3.7-1.829-5.821-.79-.166-.291-.291-.582-.457-.873-.125-.208-.624.25-.541.416.333.624.665,1.247.956,1.913.125.208.624-.249.541-.416a4.972,4.972,0,0,1-.333-.665c2.162-.915,4.158.125,6.112,1.372,0,.042.042.083.042.125-.541.125-1.039.249-1.58.374a.153.153,0,0,0-.042-.125c-1.04-1.081-3.035.541-2.079,1.788.832,1.122,2.495-.125,2.328-1.247.416-.083.79-.208,1.206-.291a.671.671,0,0,0,.291-.166l.125.25c.083.166.333,0,.457-.166,2.121,1.372,4.283,2.744,6.736,1.871,1.871,2.578,3.7,5.239,5.613,7.817a.041.041,0,0,0,.042.042c.333.458.707.956,1.081,1.414a53.238,53.238,0,0,0,8.4,8.9c-6.819-2.079-12.473-6.528-18.17-10.727.042-.083.083-.166.042-.208a4.222,4.222,0,0,1-1-2.536,1.694,1.694,0,0,0,.748-1.33,1.116,1.116,0,0,0-1.372-1.081,1.506,1.506,0,0,0-1.247,1.414,1.207,1.207,0,0,0,1.206,1.206.153.153,0,0,0,.125-.042h.042c0,.042-.042.083-.042.125a5.142,5.142,0,0,0,.374,1.622c-.042-.042-.083-.083-.125-.083a59.116,59.116,0,0,0-10.02-6.2c-1.829-.873-3.7-1.622-5.613-2.37.166-.125.333-.333.25-.457a2.748,2.748,0,0,1-.707-1,.572.572,0,0,0,.166-.125,1.511,1.511,0,0,0,.541-1.871,1.087,1.087,0,0,0-1.622-.333,1.212,1.212,0,0,0-.416,1.538,1.561,1.561,0,0,0,.582.873c.042.042.083.042.083.083a2.991,2.991,0,0,0,.624,1.123c-.832-.291-1.663-.624-2.495-.915v.125a.273.273,0,0,1-.333.208c0,.083.042.166.042.25l3.368,1.247-1.746,1a.836.836,0,0,0-.541-.166,1.447,1.447,0,0,0-1.206.956c-.042.125.042.208.166.166a.944.944,0,0,0,.374-.333.447.447,0,0,1,.582-.166.771.771,0,0,1,.5.665c0,.125,0,.333-.125.374a.572.572,0,0,1-.374,0,.786.786,0,0,1-.582-.5c-.083-.208-.624.208-.541.416a.993.993,0,0,0,1.164.624,1.326,1.326,0,0,0,1-1.206.887.887,0,0,0-.125-.5c.582-.333,1.123-.624,1.7-.956.042-.042.125-.083.166-.166,1.622.624,3.2,1.289,4.74,2.037.665.333,1.331.665,1.954,1l-1.5.125a1.39,1.39,0,0,0-1.622-.416,1.668,1.668,0,0,0-.956,2.079c.042.125.208.042.333-.042a1.152,1.152,0,0,0,1.123.582,1.655,1.655,0,0,0,1.33-1.7h0c.541-.042,1.123-.083,1.663-.125a.354.354,0,0,0,.208-.125,85.48,85.48,0,0,1,7.983,5.28c2,1.455,3.95,2.952,5.987,4.407a9.514,9.514,0,0,1-3.742.25c.125-.125.208-.25.125-.333-.374-.541-.79-1.039-1.164-1.58a1.089,1.089,0,0,0-.5-1.247,1.262,1.262,0,0,0-1.5.457.883.883,0,0,0,.083,1.372,1.008,1.008,0,0,0,1.247-.208l.042.042h0c-.042.125.042.166.125.166.333.416.624.873.956,1.289-.208-.042-.374-.083-.582-.125-1.372-.333-2.7-.915-4.116-1.164a7.425,7.425,0,0,0-3.326.125c.083-.125.125-.25.042-.291-.541-.208-1.081-.457-1.622-.665a1.147,1.147,0,0,0-.5-1.247,1.221,1.221,0,0,0-1.538.5c-.333.457-.416,1.206.208,1.455a1.146,1.146,0,0,0,1.247-.25c-.042.166.083.166.25.083.457.208.915.374,1.372.582a7.864,7.864,0,0,0-2.578,1.538c-.25-.042-.5-.125-.749-.166-.208-.042-.624.5-.416.541.5.125.956.249,1.455.333.208.042.624-.5.416-.541-.125-.042-.208-.042-.333-.083,2.453-2,5.239-1.58,8.066-.707-.624.333-1.206.665-1.829,1-.042,0-.042.042-.083.042-.042-.042-.042-.125-.083-.166v-.125a1.626,1.626,0,0,0-.665-.416h-.083a1.723,1.723,0,0,0-1.622.541,1.519,1.519,0,0,0,.25,2.328,1.728,1.728,0,0,0,2.2-.832,1.274,1.274,0,0,0,.125-.956l1.913-1.04a.426.426,0,0,0,.208-.249,11.286,11.286,0,0,0,6.528.333.6.6,0,0,0,.333-.374c4.324,3.077,8.856,5.779,14.053,7.11a.453.453,0,0,0,.208-.042q1.434,1.06,2.994,2a.078.078,0,0,0,.125,0c.5.374,1,.707,1.455,1.04.208.125.665-.374.5-.5-2-1.372-4.241-2.952-5.156-5.322-.956-2.495.333-4.906,1.081-7.276a10.823,10.823,0,0,0,.541-2.994,4.325,4.325,0,0,0,1.289-1.7,1.253,1.253,0,0,0,.873.208,1.581,1.581,0,0,0,1.247-1.663,1.211,1.211,0,0,0-1.788-.79,1.5,1.5,0,0,0-.624,2.12,1.11,1.11,0,0,0-.208.25,2.772,2.772,0,0,1-.79,1.164,23.134,23.134,0,0,0-2.037-8.9c.249.125.457.25.707.374.166.083.665-.416.416-.54-.5-.25-1-.541-1.5-.79,0-.042-.042-.042-.042-.083-.042-.083-.083-.083-.208-.042-.208-.083-.374-.208-.582-.291-.166-.083-.665.416-.416.541s.457.25.707.374c.582,1.455,1.123,2.911,1.58,4.407l-1.372-1.123a.186.186,0,0,0-.208,0,1.058,1.058,0,0,0-.457-1,1.152,1.152,0,0,0-1.414.457.941.941,0,0,0,0,1.372,1.206,1.206,0,0,0,1.538-.166.574.574,0,0,0,.125-.166l1.622,1.372c.083.083.249,0,.374-.125a14.794,14.794,0,0,1,.416,1.954,13.19,13.19,0,0,1-.291,5.571,6.618,6.618,0,0,0-1.289-2.453.041.041,0,0,1-.041-.042,1.342,1.342,0,0,0-.416-1.372,1.325,1.325,0,0,0-1.788.333,1.262,1.262,0,0,0-.125,1.788,1.411,1.411,0,0,0,1.913-.083l.042-.042a7.076,7.076,0,0,1,1.289,2.7c0,.083.083.083.166.042-.125.416-.249.832-.416,1.247-.707,2-1.289,4.075-.374,6.154a7.165,7.165,0,0,0,.915,1.538,52.939,52.939,0,0,1-10.561-11.185,11.686,11.686,0,0,1,.25-5.738c.457-2,1-3.992,1.455-6.029.042-.208.125-.458.166-.665.042,0,.042-.042.083-.083l1.871-1.829C1039.458,1309.706,1039.749,1309.872,1040.081,1309.914Zm-3.825-8.4a.749.749,0,0,1,.915,0c.249.208.457.832.166,1.123C1036.8,1302.929,1035.757,1302.1,1036.256,1301.515Zm-3.534,2.328c0-.042,0-.083-.042-.083l.083-.083c.208-.374.873-.291,1.164-.042a.893.893,0,0,1,.208,1.039c-.166.374-.665.25-.915.083A.963.963,0,0,1,1032.722,1303.843Zm-4.49-2.037c-.083.083-.166.125-.166.208-.166.5-1,.333-1.289.042a.894.894,0,0,1,0-1.206c.333-.333.873-.125,1.164.166A3.037,3.037,0,0,1,1028.231,1301.806Zm1.5,5.613a.529.529,0,0,0-.333.333c-.042.125-.374.083-.5.083a.79.79,0,0,1-.457-.291.63.63,0,0,1,.083-.832.785.785,0,0,1,.956.208A2.762,2.762,0,0,1,1029.728,1307.419Zm-8.274-10.02c.083-.374.582-.208.832-.083a.66.66,0,0,1,.249.832c-.249.374-.624-.042-.873-.208-.042,0-.042-.042-.083-.042A.518.518,0,0,1,1021.454,1297.4Zm-3.493.582c0,.125.083.125.166.083-.125.042-.208.208-.25.25-.333.5-1.247.374-1.621-.042a1.2,1.2,0,0,1-.166-1.33C1016.631,1295.943,1018.045,1297.149,1017.962,1297.981Zm-7.442-6.278a1.029,1.029,0,0,1,1,.873.771.771,0,0,1-.748.915C1009.771,1293.407,1009.189,1291.619,1010.519,1291.7Zm-4.7,1.081a.316.316,0,0,0-.083.166c-.125,1.414-2.162.541-1.871-.665.166-.665,1.081-.665,1.5-.291A1.294,1.294,0,0,1,1005.821,1292.783Zm2.578,5.9a.812.812,0,0,1,1,0c.249.208.5.873.208,1.164v-.042c-.042-.083-.208,0-.333.125a1.129,1.129,0,0,1-.707-.333C1008.316,1299.353,1008.149,1298.937,1008.4,1298.688Zm1.913,4.865a1.089,1.089,0,0,1,.291,1.289c-.208.416-.873.291-1.206.042-.748-.5-.582-1.7.457-1.58-.042.083-.042.166.083.166.125.042.208.042.374.083C1010.27,1303.511,1010.27,1303.552,1010.311,1303.552Zm9.646,6.736a.748.748,0,0,1,.873,0,1,1,0,0,1,.291.956.528.528,0,0,0-.291.166C1020.249,1311.452,1019.542,1310.745,1019.958,1310.288Zm-.125,4.781h0a.821.821,0,0,1-.166.956.847.847,0,0,1-1-.25c-.208-.249-.416-.748-.166-1.039a.946.946,0,0,1,1.164.166.144.144,0,0,0,.083.042C1019.791,1314.986,1019.791,1315.069,1019.833,1315.069Zm4.574,4.158a.923.923,0,0,1,1,.582.736.736,0,0,1-.374.956.041.041,0,0,0-.042.042h-.083C1024.157,1320.765,1023.367,1319.352,1024.406,1319.227Zm-16.257-7.318c.042-.083.042-.125,0-.166s-.083-.083-.083-.125c0-.083-.042-.125-.042-.166s-.042-.042-.083-.042c-.083-.25-.042-.5.208-.582a.941.941,0,0,1,.873.457.834.834,0,0,1-.166,1.123.25.25,0,0,1-.166.042,2.142,2.142,0,0,1-.083-.457c0-.125-.208-.042-.333.083A.574.574,0,0,1,1008.149,1311.909Zm6.237,6.985h.083l.125.249a.651.651,0,0,1-.915.79,1.008,1.008,0,0,1-.582-1.123c.042-.125-.083-.125-.208-.083a.612.612,0,0,1,.665-.374,1.239,1.239,0,0,1,.748.333C1014.3,1318.811,1014.3,1318.894,1014.386,1318.894Zm2.245,7.318a1.551,1.551,0,0,0-.249.291c-.042.083-.333.083-.457.042a.791.791,0,0,1-.457-.291.531.531,0,0,1,.083-.749.709.709,0,0,1,.832.166A1.289,1.289,0,0,1,1016.631,1326.212Zm5.114,4.033c.083.748-.665,1.039-1.289.79a1.284,1.284,0,0,1-.665-1.372c.125-.624.79-.624,1.289-.416A1.3,1.3,0,0,1,1021.745,1330.245Zm3.7-3.534c.042-.083-.083,0-.125,0a.528.528,0,0,1-.25-.042,1.684,1.684,0,0,1-.374-.208.461.461,0,0,1,.042-.665c.291-.166.624.042.832.249a1.48,1.48,0,0,1,.166.374A.961.961,0,0,0,1025.446,1326.711Zm22.993-7.525v-.042a.543.543,0,0,1,.582-.333.977.977,0,0,1,.915.832.635.635,0,0,1-.915.665A1.032,1.032,0,0,1,1048.438,1319.186Zm-4.865-2.869c-.208.208-.665,0-.873-.166-.166-.166-.291-.582-.042-.79.208-.208.541-.042.707.125A.725.725,0,0,1,1043.574,1316.316Zm.582,6.777h0a1.006,1.006,0,0,1-1.206-.166.849.849,0,0,1-.125-1.164C1043.532,1321.015,1044.7,1322.345,1044.156,1323.094Z" transform="translate(-1481.634 733.706) rotate(-77)"/></svg>