<svg xmlns="http://www.w3.org/2000/svg" width="15.506" height="16" viewBox="0 0 15.506 16"><defs><style>.a{fill:none;stroke:#333;}</style></defs><g transform="translate(0.5 0.312)"><g transform="translate(0 0.188)"><path class="a" d="M14.5,12.026a.74.74,0,0,1-.215.636l-2.042,2.1a1.152,1.152,0,0,1-.361.27,1.455,1.455,0,0,1-.438.143l-.092.008q-.077.008-.2.008a6.849,6.849,0,0,1-.944-.1,6.994,6.994,0,0,1-1.6-.508,13.271,13.271,0,0,1-2.142-1.216,16.116,16.116,0,0,1-2.549-2.225,17.247,17.247,0,0,1-1.781-2.1A15.027,15.027,0,0,1,1,7.187,10.157,10.157,0,0,1,.356,5.646,8.412,8.412,0,0,1,.064,4.454,4.07,4.07,0,0,1,0,3.668q.015-.286.015-.318A1.583,1.583,0,0,1,.156,2.9a1.19,1.19,0,0,1,.261-.373L2.459.41A.666.666,0,0,1,2.951.188.56.56,0,0,1,3.3.307,1.091,1.091,0,0,1,3.565.6L5.208,3.827a.8.8,0,0,1,.077.556,1,1,0,0,1-.261.508l-.752.779a.268.268,0,0,0-.054.1.4.4,0,0,0-.023.119,2.933,2.933,0,0,0,.276.763,7.042,7.042,0,0,0,.568.93,10.216,10.216,0,0,0,1.09,1.263A10.294,10.294,0,0,0,7.358,9.984a7.067,7.067,0,0,0,.9.6,2.341,2.341,0,0,0,.553.23L9,10.85a.356.356,0,0,0,.1-.024.254.254,0,0,0,.1-.056l.875-.922a.923.923,0,0,1,.645-.254.78.78,0,0,1,.415.1h.015L14.114,11.5A.8.8,0,0,1,14.5,12.026Z" transform="translate(0 -0.188)"/></g></g></svg>