<svg xmlns="http://www.w3.org/2000/svg" width="50" height="39.474" viewBox="0 0 50 39.474"><defs><style>.a{fill:#ff9f95;}</style></defs><path class="a" d="M20.188-22.275a10.273,10.273,0,0,1,8.657,4.086q3.116,4.086,3.116,10.6A26.567,26.567,0,0,1,27.806,6.88,27.84,27.84,0,0,1,15.617,17.2L8.415,11.1a24.876,24.876,0,0,0,9.557-5.748A18.5,18.5,0,0,0,23.1-3.161L22.4-3.438Q21.3-2.33,18.526-2.33a8.709,8.709,0,0,1-6.163-2.562,9.36,9.36,0,0,1-2.7-7.133,9.717,9.717,0,0,1,3.047-7.341A10.422,10.422,0,0,1,20.188-22.275Zm26.454,0A10.273,10.273,0,0,1,55.3-18.189q3.116,4.086,3.116,10.6A26.567,26.567,0,0,1,54.26,6.88,27.84,27.84,0,0,1,42.072,17.2l-7.2-6.094a24.876,24.876,0,0,0,9.557-5.748,18.5,18.5,0,0,0,5.125-8.518l-.693-.277Q47.75-2.33,44.98-2.33a8.709,8.709,0,0,1-6.163-2.562,9.36,9.36,0,0,1-2.7-7.133,9.717,9.717,0,0,1,3.047-7.341A10.422,10.422,0,0,1,46.642-22.275Z" transform="translate(58.415 17.199) rotate(-180)"/></svg>