<svg xmlns="http://www.w3.org/2000/svg" width="19.156" height="25.5" viewBox="0 0 19.156 25.5"><defs><style>.a{fill:#333;stroke:#333;stroke-width:0.5px;}</style></defs><g transform="translate(0.25 0.25)"><path class="a" d="M.379,25A.378.378,0,0,1,0,24.6l.851-17.9a.38.38,0,0,1,.38-.359H4.853V4.475a4.474,4.474,0,1,1,8.948,0V6.346h3.624a.377.377,0,0,1,.378.359l.853,17.9a.379.379,0,0,1-.378.4Zm.4-.758h17.1L17.063,7.1H13.8V8.24a.379.379,0,0,1-.758,0V7.1H5.611V8.24a.379.379,0,0,1-.758,0V7.1H1.593Zm12.268-17.9V4.475a3.716,3.716,0,1,0-7.432,0V6.346Z"/></g></svg>