<svg xmlns="http://www.w3.org/2000/svg" xmlns:xlink="http://www.w3.org/1999/xlink" width="42" height="42" viewBox="0 0 42 42"><defs><style>.a,.c{fill:#333;}.a{stroke:#707070;}.b{clip-path:url(#a);}</style><clipPath id="a"><rect class="a" width="42" height="42" transform="translate(916 1839)"/></clipPath></defs><g class="b" transform="translate(-916 -1839)"><g transform="translate(916 1853.227)"><path class="c" d="M18.333,30.663,20.467,17.9H23.8L21.733,30.663Z" transform="translate(-2.933 -17.471)"/><path class="c" d="M18.333,30.663,21.067,17.9H23.8L21.733,30.663Z" transform="translate(-2.933 -17.471)"/><path class="c" d="M34.8,17.988a8.008,8.008,0,0,0-3.067-.567C28.4,17.421,26,19.194,26,21.747c0,1.915,1.667,2.908,3,3.546s1.733,1.064,1.733,1.631c0,.851-1.067,1.277-2,1.277a6.879,6.879,0,0,1-3.2-.709l-.467-.213L24.6,30.187a10.236,10.236,0,0,0,3.8.709c3.533,0,5.867-1.773,5.867-4.468,0-1.489-.867-2.624-2.867-3.546-1.2-.638-1.933-.993-1.933-1.631,0-.567.6-1.135,1.933-1.135a5.8,5.8,0,0,1,2.533.5l.333.142.533-2.766Z" transform="translate(-3.937 -17.421)"/><path class="c" d="M34.8,17.988a8.008,8.008,0,0,0-3.067-.567c-3.333,0-5.133,1.773-5.133,4.326A3.692,3.692,0,0,0,29,25.293c1.333.638,1.733,1.064,1.733,1.631,0,.851-1.067,1.277-2,1.277a6.879,6.879,0,0,1-3.2-.709l-.467-.213L24.6,30.187a10.236,10.236,0,0,0,3.8.709c3.533,0,5.867-1.773,5.867-4.468,0-1.489-.867-2.624-2.867-3.546-1.2-.638-1.933-.993-1.933-1.631,0-.567.6-1.135,1.933-1.135a5.8,5.8,0,0,1,2.533.5l.333.142.533-2.766Z" transform="translate(-3.937 -17.421)"/><path class="c" d="M42.289,17.9c-.8,0-1.4.071-1.733.922l-5,11.844h3.6l.667-2.128h4.267l.4,2.128h3.2L44.889,17.9Zm-1.533,8.511c.2-.638,1.333-3.759,1.333-3.759s.267-.78.467-1.277l.2,1.206s.667,3.191.8,3.9h-2.8Z" transform="translate(-5.689 -17.471)"/><path class="c" d="M43.089,17.9c-.8,0-1.4.071-1.733.922l-5.8,11.844h3.6l.667-2.128h4.267l.4,2.128h3.2L44.889,17.9Zm-2.333,8.511c.267-.709,1.333-3.759,1.333-3.759s.267-.78.467-1.277l.2,1.206s.667,3.191.8,3.9h-2.8Z" transform="translate(-5.689 -17.471)"/><path class="c" d="M10.079,26.841,9.746,25a10.108,10.108,0,0,0-4.667-5.6l3,11.348h3.6l5.4-12.766h-3.6Z" transform="translate(-0.813 -17.48)"/><path class="c" d="M10.079,26.841,9.746,25a10.108,10.108,0,0,0-4.667-5.6l3,11.348h3.6l5.4-12.766H14.146Z" transform="translate(-0.813 -17.48)"/><path class="c" d="M0,17.9l.6.142C4.867,19.1,7.8,21.8,8.933,24.989l-1.2-6.028A1.345,1.345,0,0,0,6.2,17.9Z" transform="translate(0 -17.471)"/><path class="c" d="M0,17.9H0c4.267,1.064,7.8,3.83,8.933,7.021L7.8,19.883a1.65,1.65,0,0,0-1.6-1.348Z" transform="translate(0 -17.471)"/><path class="c" d="M0,17.9H0c4.267,1.064,7.8,3.83,8.933,7.021l-.8-2.766a2.5,2.5,0,0,0-1.4-2.057Z" transform="translate(0 -17.471)"/><g transform="translate(4.333 1.844)"><path class="c" d="M13.425,26.576l-2.267-2.411-1.067,2.7-.267-1.773a10.108,10.108,0,0,0-4.667-5.6l3,11.348h3.6Z" transform="translate(-5.159 -19.484)"/><path class="c" d="M21.733,31.811,18.867,28.69l-.533,3.121Z" transform="translate(-7.267 -20.464)"/><path class="c" d="M30.4,27.262h0c.267.284.4.5.333.78,0,.851-1.067,1.277-2,1.277a6.879,6.879,0,0,1-3.2-.709L25.07,28.4,24.6,31.3a10.236,10.236,0,0,0,3.8.709,6.368,6.368,0,0,0,4.867-1.773Z" transform="translate(-8.27 -20.312)"/><path class="c" d="M36.111,31.076h3.133l.667-2.128h4.267l.4,2.128h3.2L46.644,25.9l-4-4.113.2,1.135s.667,3.191.8,3.9h-2.8c.267-.709,1.333-3.759,1.333-3.759s.267-.78.467-1.277" transform="translate(-10.111 -19.729)"/></g></g></g></svg>